<svg viewBox="0 0 512 512" xmlns="http://www.w3.org/2000/svg" fill="currentColor">
  <!-- Haystack mound -->
  <path d="M256 96c-22 0-41 16-58 44-28 46-66 132-86 196-5 16 7 32 24 32h240c17 0 29-16 24-32-20-64-58-150-86-196-17-28-36-44-58-44zm0 40c9 0 21 9 34 31 24 40 58 118 78 177H144c20-59 54-137 78-177 13-22 25-31 34-31z"/>
  <!-- Strands -->
  <path d="M256 150c-7 26-12 130-12 214h24c0-84-5-188-12-214z"/>
  <path d="M205 214c-2 24-3 100-3 150h20c0-50-1-126-3-150-3-14-11-14-14 0z"/>
  <path d="M307 214c-3-14-11-14-14 0-2 24-3 100-3 150h20c0-50-1-126-3-150z"/>
  <!-- Base -->
  <path d="M120 392h272v24H120z"/>
</svg>
